<svg id="Layer_1" data-name="Layer 1" xmlns="http://www.w3.org/2000/svg" viewBox="0 0 779 222"><defs><style>.cls-1{fill:#005dbf;}.cls-2{fill:#fbb333;}.cls-3{fill:#22b15b;}.cls-4{fill:#459b45;}.cls-5{fill:#aaa;}.cls-6,.cls-7,.cls-8{fill:#fff;stroke-miterlimit:10;stroke-width:2px;}.cls-6{stroke:#22b15b;}.cls-7{stroke:#005dbf;}.cls-8{stroke:#459b45;}</style></defs><title>Artboard 1</title><path class="cls-1" d="M391.5,12a100,100,0,1,1-100,100,100.11,100.11,0,0,1,100-100m0-2a102,102,0,1,0,102,102,102,102,0,0,0-102-102Z"/><rect class="cls-2" x="371.27" y="66.56" width="25.02" height="27.29"/><rect class="cls-2" x="396.29" y="46.66" width="18.19" height="19.9"/><rect class="cls-2" x="421.3" y="77.08" width="15.35" height="16.77"/><path class="cls-1" d="M396.29,93.85V120.2H371.36V66.56h-.85a24.15,24.15,0,0,0-24.16,24.17v2.84h0v.28h0v19.52h0v64h25V157.53h0v-9.95h25.78a24.14,24.14,0,0,0,24.16-24.16V93.85Z"/><path class="cls-3" d="M111,12A100,100,0,1,1,11,112,100.11,100.11,0,0,1,111,12m0-2A102,102,0,1,0,213,112,102,102,0,0,0,111,10Z"/><path class="cls-3" d="M44.5,111.92c0-10.2,0-20.4,0-30.6,0-5.32,2.18-9.11,6.79-11.77Q77.67,54.37,104,39A12.89,12.89,0,0,1,118,39q26.19,15.3,52.48,30.39c4.82,2.76,7,6.69,7,12.19q-.09,30.34,0,60.68c0,5.62-2.29,9.56-7.18,12.36q-26.21,15-52.27,30.25c-4.86,2.84-9.46,2.9-14.26-.07-5.46-3.39-11-6.57-16.56-9.87-.71-.42-1.8-.72-1.77-1.67s1.21-1,2-1.33a21.55,21.55,0,0,0,4.45-2c2.51-1.84,4.57-1.33,6.95.28,3.27,2.19,6.78,4,10.12,6.11a3.45,3.45,0,0,0,4,0q26.33-15.3,52.72-30.49a3.41,3.41,0,0,0,1.87-3.32q-.06-30.6,0-61.2a3.57,3.57,0,0,0-2.08-3.45Q139.2,62.84,113,47.59a3.52,3.52,0,0,0-4,0Q82.77,62.83,56.47,78a4,4,0,0,0-2.17,3.94q.08,30.08,0,60.17a4.09,4.09,0,0,0,2.4,4.07c4.2,2.31,8.32,4.79,12.48,7.17a19.1,19.1,0,0,0,2.77,1.34c6.69,2.51,11.52-.78,11.53-7.88q0-28.93,0-57.86c0-.77,0-1.55,0-2.32-.08-1.69.6-2.53,2.4-2.5,9.06.15,7.66-1.24,7.69,7.22.07,18.42,0,36.85,0,55.28a30.82,30.82,0,0,1-.67,7.66c-1.69,6.64-6.54,10.64-13.36,11.25a25.6,25.6,0,0,1-15-3.47q-7.06-3.95-14-8.08a11.59,11.59,0,0,1-6-10.65Z"/><path class="cls-3" d="M126,82.35c5.37.14,10.31.53,15,2.33,7.12,2.71,10.9,8,11.92,15.39.37,2.71-.09,3.19-2.78,3.24a12,12,0,0,0-1.8,0c-3.5.55-5.72-.37-6.62-4.29-.73-3.19-3.4-5.14-6.57-5.93a35.77,35.77,0,0,0-17.8-.07c-2.87.73-5.21,2.26-5.63,5.59-.4,3.17.42,4.63,3.47,5.68,5.22,1.8,10.72,2.21,16.13,3A76.29,76.29,0,0,1,144.19,110c5.73,1.87,10.14,5,10.92,11.58.86,7.24-1.23,13.21-7.6,17.27a29.82,29.82,0,0,1-13.61,4.22c-7.74.72-15.42.45-22.8-2.34-7.64-2.89-12-9-12.19-16.49,0-2,.65-2.9,2.64-2.81.6,0,1.2,0,1.8,0,5,0,5,0,6.57,4.69a8.62,8.62,0,0,0,5.67,5.88,40.93,40.93,0,0,0,23.54.19,6.65,6.65,0,0,0,5.15-5.8c.45-3.59-.48-5.28-3.89-6.56-4.53-1.71-9.32-2.17-14.09-2.7a72.4,72.4,0,0,1-14.38-2.56c-6.45-2.07-10.64-6-11.17-13.13a15.86,15.86,0,0,1,9-15.76C115,82.94,120.64,82.4,126,82.35Z"/><path class="cls-4" d="M672,12A100,100,0,1,1,572,112,100.11,100.11,0,0,1,672,12m0-2A102,102,0,1,0,774,112,102,102,0,0,0,672,10Z"/><path class="cls-4" d="M636.67,96.89A93.77,93.77,0,0,1,649.86,58,75.72,75.72,0,0,1,666,38.83c2.9-2.41,5.33-5,5.43-9.34a5.75,5.75,0,0,1,.56.83,45.63,45.63,0,0,0,10.43,15.4,90.64,90.64,0,0,1,24.68,47.57c4.62,24.41-.75,46.67-17.07,65.85a52.52,52.52,0,0,1-11.71,10.75c-.68.14-1.07-.36-1.46-.75-1.09-1.09-1.51-.6-1.9.62-.9,2.78-1.87,5.54-2.86,8.29-.19.51,0,1.36-1,1.41q-.74-3.11-1.46-6.2a6.31,6.31,0,0,0-2.38-3.48c-13.7-11.21-23.62-25-28.66-42.11-.86-2.94-1.35-5.93-1.92-8.92-.09-.44.17-1.15-.71-1.1C636,111.05,636.63,97.31,636.67,96.89Z"/><path class="cls-5" d="M671.13,179.46c.92-.05.77-.9,1-1.41,1-2.75,2-5.51,2.86-8.29.39-1.22.81-1.71,1.9-.62.39.39.78.89,1.46.75-3.43,5-2.62,10.65-2.59,16.19a34.47,34.47,0,0,0,.25,3.8c.15,1.26-.25,1.28-1.32.91-3-1.07-3-1-3.06-4.25C671.52,184.18,671.29,181.82,671.13,179.46Z"/><line class="cls-6" x1="213" y1="112" x2="252" y2="112"/><line class="cls-7" x1="252" y1="112" x2="291" y2="112"/><line class="cls-7" x1="493" y1="112" x2="532" y2="112"/><line class="cls-8" x1="532" y1="112" x2="571" y2="112"/></svg>